<?xml version="1.0" encoding="UTF-8"?>
<svg id="Layer_1" data-name="Layer 1" xmlns="http://www.w3.org/2000/svg" viewBox="0 0 42 51"><defs><style>.cls-1{fill:#267df4;}</style></defs><title>lock2</title><path class="cls-1" d="M721.9,402.5H686.1l-.45-.2a3.8,3.8,0,0,1-2.27-2l-.38-.86q0-12.4,0-24.8l.2-.45a3.93,3.93,0,0,1,3.92-2.66,8.59,8.59,0,0,0,.87,0c0-.27,0-.47,0-.66,0-1.68,0-3.36,0-5a13.11,13.11,0,0,1,.26-2.27,14.86,14.86,0,0,1,2.49-5.72,14.64,14.64,0,0,1,3.83-3.74,14.89,14.89,0,0,1,6-2.37c.24,0,.48-.1.72-.15h5.4l1.36.27a15.57,15.57,0,0,1,5.1,2.09,15.07,15.07,0,0,1,3.26,2.84,15,15,0,0,1,3.59,9.2c0,1.65,0,3.3,0,4.94,0,.19,0,.39,0,.65.39,0,.73,0,1.08,0a3.77,3.77,0,0,1,3.42,2.11c.17.32.3.66.45,1v24.8c-.07.15-.14.3-.2.45a3.8,3.8,0,0,1-2,2.27Zm-17.9-3h16.45c1.19,0,1.54-.36,1.54-1.56q0-10.92,0-21.85c0-1.23-.35-1.58-1.57-1.58H687.58c-1.22,0-1.57.35-1.57,1.58q0,10.9,0,21.8c0,1.27.34,1.61,1.59,1.61Zm-8-28.06c.72.12,15.53.08,15.93,0,0-.16,0-.34,0-.52,0-1,0-1.93,0-2.9a11.44,11.44,0,0,0-.12-1.64,8,8,0,0,0-9-6.71,7.58,7.58,0,0,0-3.76,1.62,8.17,8.17,0,0,0-2.45,3.22A9.5,9.5,0,0,0,696,368c0,1,0,1.93,0,2.9C696,371.05,696,371.23,696,371.43Zm20.91,0c0-.17,0-.27,0-.37,0-1.43,0-2.87,0-4.3a13.13,13.13,0,0,0-.11-1.74,12.09,12.09,0,0,0-9.06-10.17,16.78,16.78,0,0,0-2.32-.31,19.1,19.1,0,0,0-4,.07,11,11,0,0,0-4.16,1.33,12.12,12.12,0,0,0-4.42,4.1,12.4,12.4,0,0,0-1.92,6.77c0,1.35,0,2.7,0,4,0,.18,0,.35,0,.51a4.35,4.35,0,0,0,2,0c0-.16,0-.34,0-.52,0-1.18,0-2.37,0-3.55a9.3,9.3,0,0,1,.31-2.52,11,11,0,0,1,14.35-7.7,11,11,0,0,1,7.35,10c0,1.27,0,2.53,0,3.8,0,.18,0,.35,0,.56Z" transform="translate(-683 -351.5)"/><path class="cls-1" d="M702.59,388.64l.5-.48,6-6a1.55,1.55,0,0,1,1.95-.38,1.51,1.51,0,0,1,.62,2.09,2.57,2.57,0,0,1-.4.51l-7.45,7.46a1.6,1.6,0,0,1-1.81.49,1.46,1.46,0,0,1-.5-.31c-1.68-1.67-3.36-3.33-5-5a1.52,1.52,0,0,1,.57-2.5,1.67,1.67,0,0,1,1.79.46l2.58,2.58Z" transform="translate(-683 -351.5)"/></svg>